<?xml version="1.0" encoding="utf-8"?>
<!-- Generator: Adobe Illustrator 18.1.1, SVG Export Plug-In . SVG Version: 6.00 Build 0)  -->
<svg version="1.1" id="レイヤー_1" xmlns="http://www.w3.org/2000/svg" xmlns:xlink="http://www.w3.org/1999/xlink" x="0px"
	 y="0px" viewBox="0 0 300 65" enable-background="new 0 0 300 65" xml:space="preserve">
<g>
	<polygon fill="#EC9E00" points="18.5,31.7 19,32.5 19.5,33.3 49.5,16 49,15.2 48.6,14.4 	"/>
	<polygon fill="#C8C9CA" points="19,32.5 18.5,33.3 48.6,50.7 49,49.8 49.5,49 19.5,31.7 	"/>
	<path fill="#595757" d="M86.9,15.2h10.4v26.6h8.2v8H86.9V15.2z"/>
	<path fill="#595757" d="M115.8,15.2h10.4v34.7h-10.4V15.2z"/>
	<path fill="#595757" d="M133.9,15.2h10.8l7.8,23.1h0.1l7.4-23.1h11.1l-13.7,34.7h-9.6L133.9,15.2z"/>
	<path fill="#595757" d="M179,15.2h10.4v26.6h8.2v8H179V15.2z"/>
	<path fill="#595757" d="M207.9,15.2h10.4v34.7h-10.4V15.2z"/>
	<path fill="#595757" d="M228.6,15.2h10.5l12.8,19.4V15.2h10.4v34.7h-10.6L239,30.6v19.3h-10.4V15.2z"/>
	<path fill="#595757" d="M272.6,15.2h21v7.4h-10.6v6.4h9.2v7.2h-9.2v6.3h10.7v7.4h-21V15.2z"/>
	<circle fill="#EC9E00" cx="49" cy="15.2" r="12.6"/>
	<circle fill="#CEDB27" cx="49" cy="49.8" r="12.6"/>
	<circle fill="#C8C9CA" cx="19" cy="32.5" r="12.6"/>
</g>
</svg>
